<svg xmlns="http://www.w3.org/2000/svg" width="2048" height="2048" viewBox="0 0 2048 2048" version="1.1"><path d="" stroke="none" fill="#18acfc" fill-rule="evenodd"/><path d="M 892 5 L 892 10 861.500 10 L 831 10 831 15 L 831 20 811 20 L 791 20 791 25 L 791 30 770.500 30 L 750 30 750 35.500 L 750 41 730 41 L 710 41 710 46 L 710 51 694.500 51 L 679 51 679 56 L 679 61 669 61 L 659 61 659 66 L 659 71 644 71 L 629 71 629 76 L 629 81 618.500 81 L 608 81 608 86 L 608 91 598 91 L 588 91 588 96 L 588 101 578 101 L 568 101 568 106.500 L 568 112 557.500 112 L 547 112 547 117 L 547 122 537 122 L 527 122 527 127 L 527 132 517 132 L 507 132 507 137 L 507 142 497 142 L 487 142 487 147 L 487 152 482 152 L 477 152 477 157 L 477 162 466.500 162 L 456 162 456 167 L 456 172 451 172 L 446 172 446 177 L 446 182 436 182 L 426 182 426 187.500 L 426 193 421 193 L 416 193 416 198 L 416 203 411 203 L 406 203 406 208 L 406 213 395.500 213 L 385 213 385 218 L 385 223 380 223 L 375 223 375 228 L 375 233 370 233 L 365 233 365 238 L 365 243 360 243 L 355 243 355 248 L 355 253 350 253 L 345 253 345 258.500 L 345 264 340 264 L 335 264 335 269 L 335 274 324.500 274 L 314 274 314 279 L 314 284 309 284 L 304 284 304 289 L 304 294 299 294 L 294 294 294 299 L 294 304 289 304 L 284 304 284 314 L 284 324 279 324 L 274 324 274 329.500 L 274 335 269 335 L 264 335 264 340 L 264 345 258.500 345 L 253 345 253 350 L 253 355 248 355 L 243 355 243 360 L 243 365 238 365 L 233 365 233 370 L 233 375 228 375 L 223 375 223 380 L 223 385 218 385 L 213 385 213 395.500 L 213 406 208 406 L 203 406 203 411 L 203 416 198 416 L 193 416 193 426 L 193 436 187.500 436 L 182 436 182 441 L 182 446 177 446 L 172 446 172 451 L 172 456 167 456 L 162 456 162 466.500 L 162 477 157 477 L 152 477 152 487 L 152 497 147 497 L 142 497 142 502 L 142 507 137 507 L 132 507 132 517 L 132 527 127 527 L 122 527 122 537 L 122 547 117 547 L 112 547 112 557.500 L 112 568 106.500 568 L 101 568 101 578 L 101 588 96 588 L 91 588 91 598 L 91 608 86 608 L 81 608 81 623.500 L 81 639 76 639 L 71 639 71 649 L 71 659 66 659 L 61 659 61 674 L 61 689 56 689 L 51 689 51 704.500 L 51 720 46 720 L 41 720 41 735 L 41 750 35.500 750 L 30 750 30 770.500 L 30 791 25 791 L 20 791 20 816.500 L 20 842 15 842 L 10 842 10 882.500 L 10 923 5 923 L 0 923 0 1024 L 0 1125 5 1125 L 10 1125 10 1160.500 L 10 1196 15 1196 L 20 1196 20 1221.500 L 20 1247 25 1247 L 30 1247 30 1267.500 L 30 1288 35.500 1288 L 41 1288 41 1308 L 41 1328 46 1328 L 51 1328 51 1343.500 L 51 1359 56 1359 L 61 1359 61 1374 L 61 1389 66 1389 L 71 1389 71 1399 L 71 1409 76 1409 L 81 1409 81 1424.500 L 81 1440 86 1440 L 91 1440 91 1450 L 91 1460 96 1460 L 101 1460 101 1470 L 101 1480 106.500 1480 L 112 1480 112 1490.500 L 112 1501 117 1501 L 122 1501 122 1511 L 122 1521 127 1521 L 132 1521 132 1531 L 132 1541 137 1541 L 142 1541 142 1546 L 142 1551 147 1551 L 152 1551 152 1561 L 152 1571 157 1571 L 162 1571 162 1576.500 L 162 1582 167 1582 L 172 1582 172 1592 L 172 1602 177 1602 L 182 1602 182 1607 L 182 1612 187.500 1612 L 193 1612 193 1622 L 193 1632 198 1632 L 203 1632 203 1637 L 203 1642 208 1642 L 213 1642 213 1647.500 L 213 1653 218 1653 L 223 1653 223 1663 L 223 1673 228 1673 L 233 1673 233 1678 L 233 1683 238 1683 L 243 1683 243 1688 L 243 1693 248 1693 L 253 1693 253 1698 L 253 1703 258.500 1703 L 264 1703 264 1708 L 264 1713 269 1713 L 274 1713 274 1718.500 L 274 1724 279 1724 L 284 1724 284 1729 L 284 1734 289 1734 L 294 1734 294 1739 L 294 1744 299 1744 L 304 1744 304 1749 L 304 1754 309 1754 L 314 1754 314 1759 L 314 1764 319 1764 L 324 1764 324 1769 L 324 1774 329.500 1774 L 335 1774 335 1779 L 335 1784 340 1784 L 345 1784 345 1789.500 L 345 1795 350 1795 L 355 1795 355 1800 L 355 1805 360 1805 L 365 1805 365 1810 L 365 1815 370 1815 L 375 1815 375 1820 L 375 1825 385 1825 L 395 1825 395 1830 L 395 1835 400.500 1835 L 406 1835 406 1840 L 406 1845 411 1845 L 416 1845 416 1850 L 416 1855 426 1855 L 436 1855 436 1860.500 L 436 1866 441 1866 L 446 1866 446 1871 L 446 1876 451 1876 L 456 1876 456 1881 L 456 1886 466.500 1886 L 477 1886 477 1891 L 477 1896 487 1896 L 497 1896 497 1901 L 497 1906 502 1906 L 507 1906 507 1911 L 507 1916 517 1916 L 527 1916 527 1921 L 527 1926 537 1926 L 547 1926 547 1931 L 547 1936 557.500 1936 L 568 1936 568 1941.500 L 568 1947 578 1947 L 588 1947 588 1952 L 588 1957 598 1957 L 608 1957 608 1962 L 608 1967 618.500 1967 L 629 1967 629 1972 L 629 1977 644 1977 L 659 1977 659 1982 L 659 1987 674 1987 L 689 1987 689 1992 L 689 1997 704.500 1997 L 720 1997 720 2002 L 720 2007 735 2007 L 750 2007 750 2012.500 L 750 2018 770.500 2018 L 791 2018 791 2023 L 791 2028 816.500 2028 L 842 2028 842 2033 L 842 2038 872 2038 L 902 2038 902 2043 L 902 2048 1024 2048 L 1146 2048 1146 2043 L 1146 2038 1181.500 2038 L 1217 2038 1217 2033 L 1217 2028 1242 2028 L 1267 2028 1267 2023 L 1267 2018 1282.500 2018 L 1298 2018 1298 2012.500 L 1298 2007 1318 2007 L 1338 2007 1338 2002 L 1338 1997 1353.500 1997 L 1369 1997 1369 1992 L 1369 1987 1384 1987 L 1399 1987 1399 1982 L 1399 1977 1409 1977 L 1419 1977 1419 1972 L 1419 1967 1429.500 1967 L 1440 1967 1440 1962 L 1440 1957 1455 1957 L 1470 1957 1470 1952 L 1470 1947 1480 1947 L 1490 1947 1490 1941.500 L 1490 1936 1500.500 1936 L 1511 1936 1511 1931 L 1511 1926 1516 1926 L 1521 1926 1521 1921 L 1521 1916 1531 1916 L 1541 1916 1541 1911 L 1541 1906 1551 1906 L 1561 1906 1561 1901 L 1561 1896 1566 1896 L 1571 1896 1571 1891 L 1571 1886 1581.500 1886 L 1592 1886 1592 1881 L 1592 1876 1597 1876 L 1602 1876 1602 1871 L 1602 1866 1612 1866 L 1622 1866 1622 1860.500 L 1622 1855 1627 1855 L 1632 1855 1632 1850 L 1632 1845 1642.500 1845 L 1653 1845 1653 1840 L 1653 1835 1658 1835 L 1663 1835 1663 1830 L 1663 1825 1668 1825 L 1673 1825 1673 1820 L 1673 1815 1678 1815 L 1683 1815 1683 1810 L 1683 1805 1693 1805 L 1703 1805 1703 1800 L 1703 1795 1708 1795 L 1713 1795 1713 1789.500 L 1713 1784 1718.500 1784 L 1724 1784 1724 1779 L 1724 1774 1729 1774 L 1734 1774 1734 1769 L 1734 1764 1739 1764 L 1744 1764 1744 1759 L 1744 1754 1749 1754 L 1754 1754 1754 1749 L 1754 1744 1759 1744 L 1764 1744 1764 1739 L 1764 1734 1769 1734 L 1774 1734 1774 1729 L 1774 1724 1779 1724 L 1784 1724 1784 1718.500 L 1784 1713 1789.500 1713 L 1795 1713 1795 1708 L 1795 1703 1800 1703 L 1805 1703 1805 1693 L 1805 1683 1810 1683 L 1815 1683 1815 1678 L 1815 1673 1820 1673 L 1825 1673 1825 1668 L 1825 1663 1830 1663 L 1835 1663 1835 1658 L 1835 1653 1840 1653 L 1845 1653 1845 1642.500 L 1845 1632 1850 1632 L 1855 1632 1855 1627 L 1855 1622 1860.500 1622 L 1866 1622 1866 1617 L 1866 1612 1871 1612 L 1876 1612 1876 1602 L 1876 1592 1881 1592 L 1886 1592 1886 1587 L 1886 1582 1891 1582 L 1896 1582 1896 1571.500 L 1896 1561 1901 1561 L 1906 1561 1906 1551 L 1906 1541 1911 1541 L 1916 1541 1916 1536 L 1916 1531 1921 1531 L 1926 1531 1926 1521 L 1926 1511 1931 1511 L 1936 1511 1936 1500.500 L 1936 1490 1941.500 1490 L 1947 1490 1947 1480 L 1947 1470 1952 1470 L 1957 1470 1957 1460 L 1957 1450 1962 1450 L 1967 1450 1967 1434.500 L 1967 1419 1972 1419 L 1977 1419 1977 1409 L 1977 1399 1982 1399 L 1987 1399 1987 1384 L 1987 1369 1992 1369 L 1997 1369 1997 1353.500 L 1997 1338 2002 1338 L 2007 1338 2007 1323 L 2007 1308 2012.500 1308 L 2018 1308 2018 1287.500 L 2018 1267 2023 1267 L 2028 1267 2028 1247 L 2028 1227 2033 1227 L 2038 1227 2038 1196.500 L 2038 1166 2042.838 1166 L 2047.677 1166 2048.338 1134.337 C 2049.193 1093.440, 2049.193 951.132, 2048.339 912.163 L 2047.677 882 2042.839 882 L 2038 882 2038 851.500 L 2038 821 2033 821 L 2028 821 2028 796 L 2028 771 2023 771 L 2018 771 2018 755.500 L 2018 740 2012.500 740 L 2007 740 2007 720 L 2007 700 2002 700 L 1997 700 1997 689.500 L 1997 679 1992 679 L 1987 679 1987 664 L 1987 649 1982 649 L 1977 649 1977 633.500 L 1977 618 1972 618 L 1967 618 1967 608 L 1967 598 1962 598 L 1957 598 1957 588 L 1957 578 1952 578 L 1947 578 1947 568 L 1947 558 1941.500 558 L 1936 558 1936 547.500 L 1936 537 1931 537 L 1926 537 1926 527 L 1926 517 1921 517 L 1916 517 1916 512 L 1916 507 1911 507 L 1906 507 1906 497 L 1906 487 1901 487 L 1896 487 1896 476.500 L 1896 466 1891 466 L 1886 466 1886 461 L 1886 456 1881 456 L 1876 456 1876 446 L 1876 436 1871 436 L 1866 436 1866 431 L 1866 426 1860.500 426 L 1855 426 1855 416 L 1855 406 1850 406 L 1845 406 1845 400.500 L 1845 395 1840 395 L 1835 395 1835 390 L 1835 385 1830 385 L 1825 385 1825 380 L 1825 375 1820 375 L 1815 375 1815 365 L 1815 355 1810 355 L 1805 355 1805 350 L 1805 345 1800 345 L 1795 345 1795 340 L 1795 335 1789.500 335 L 1784 335 1784 329.500 L 1784 324 1779 324 L 1774 324 1774 319 L 1774 314 1769 314 L 1764 314 1764 309 L 1764 304 1759 304 L 1754 304 1754 299 L 1754 294 1749 294 L 1744 294 1744 289 L 1744 284 1739 284 L 1734 284 1734 279 L 1734 274 1729 274 L 1724 274 1724 269 L 1724 264 1718.500 264 L 1713 264 1713 258.500 L 1713 253 1708 253 L 1703 253 1703 248 L 1703 243 1698 243 L 1693 243 1693 238 L 1693 233 1683 233 L 1673 233 1673 228 L 1673 223 1668 223 L 1663 223 1663 218 L 1663 213 1658 213 L 1653 213 1653 208 L 1653 203 1642.500 203 L 1632 203 1632 198 L 1632 193 1627 193 L 1622 193 1622 187.500 L 1622 182 1617 182 L 1612 182 1612 177 L 1612 172 1602 172 L 1592 172 1592 167 L 1592 162 1587 162 L 1582 162 1582 157 L 1582 152 1571.500 152 L 1561 152 1561 147 L 1561 142 1551 142 L 1541 142 1541 137 L 1541 132 1536 132 L 1531 132 1531 127 L 1531 122 1521 122 L 1511 122 1511 117 L 1511 112 1500.500 112 L 1490 112 1490 106.500 L 1490 101 1480 101 L 1470 101 1470 96 L 1470 91 1460 91 L 1450 91 1450 86 L 1450 81 1434.500 81 L 1419 81 1419 76 L 1419 71 1409 71 L 1399 71 1399 66 L 1399 61 1384 61 L 1369 61 1369 56 L 1369 51 1353.500 51 L 1338 51 1338 46 L 1338 41 1323 41 L 1308 41 1308 35.500 L 1308 30 1287.500 30 L 1267 30 1267 25 L 1267 20 1247 20 L 1227 20 1227 15 L 1227 10 1191.500 10 L 1156 10 1156 5 L 1156 0 1024 0 L 892 0 892 5 M 994 177 L 994 182 968.500 182 L 943 182 943 187.500 L 943 193 927.500 193 L 912 193 912 198 L 912 203 897 203 L 882 203 882 208 L 882 213 872 213 L 862 213 862 218 L 862 223 852 223 L 842 223 842 228 L 842 233 831.500 233 L 821 233 821 238 L 821 243 811 243 L 801 243 801 248 L 801 253 796 253 L 791 253 791 258.500 L 791 264 786 264 L 781 264 781 269 L 781 274 770.500 274 L 760 274 760 279 L 760 284 755 284 L 750 284 750 289 L 750 294 745 294 L 740 294 740 299 L 740 304 735 304 L 730 304 730 309 L 730 314 725 314 L 720 314 720 319 L 720 324 715 324 L 710 324 710 329.500 L 710 335 705 335 L 700 335 700 340 L 700 345 694.500 345 L 689 345 689 350 L 689 355 684 355 L 679 355 679 360 L 679 365 674 365 L 669 365 669 375 L 669 385 664 385 L 659 385 659 390 L 659 395 654 395 L 649 395 649 400.500 L 649 406 644 406 L 639 406 639 416 L 639 426 634 426 L 629 426 629 431 L 629 436 623.500 436 L 618 436 618 446 L 618 456 613 456 L 608 456 608 466.500 L 608 477 603 477 L 598 477 598 482 L 598 487 593 487 L 588 487 588 497 L 588 507 583 507 L 578 507 578 517 L 578 527 573 527 L 568 527 568 542.500 L 568 558 563 558 L 558 558 558 568 L 558 578 552.500 578 L 547 578 547 588 L 547 598 542 598 L 537 598 537 613.500 L 537 629 532 629 L 527 629 527 644 L 527 659 522 659 L 517 659 517 674 L 517 689 512 689 L 507 689 507 709.500 L 507 730 502 730 L 497 730 497 755.500 L 497 781 492 781 L 487 781 487 806 L 487 831 482 831 L 477 831 477 882 L 477 933 471.500 933 L 466 933 466 1004 L 466 1075 471.500 1075 L 477 1075 477 1125.500 L 477 1176 482 1176 L 487 1176 487 1206.500 L 487 1237 492 1237 L 497 1237 497 1257 L 497 1277 502 1277 L 507 1277 507 1297.500 L 507 1318 512 1318 L 517 1318 517 1333 L 517 1348 522 1348 L 527 1348 527 1363.500 L 527 1379 532 1379 L 537 1379 537 1394 L 537 1409 542 1409 L 547 1409 547 1419.500 L 547 1430 552.500 1430 L 558 1430 558 1445 L 558 1460 563 1460 L 568 1460 568 1470 L 568 1480 573 1480 L 578 1480 578 1490.500 L 578 1501 583 1501 L 588 1501 588 1511 L 588 1521 593 1521 L 598 1521 598 1526 L 598 1531 603 1531 L 608 1531 608 1541 L 608 1551 613 1551 L 618 1551 618 1561 L 618 1571 623.500 1571 L 629 1571 629 1576.500 L 629 1582 634 1582 L 639 1582 639 1587 L 639 1592 644 1592 L 649 1592 649 1602 L 649 1612 654 1612 L 659 1612 659 1617 L 659 1622 664 1622 L 669 1622 669 1627 L 669 1632 674 1632 L 679 1632 679 1642.500 L 679 1653 684 1653 L 689 1653 689 1658 L 689 1663 694.500 1663 L 700 1663 700 1668 L 700 1673 705 1673 L 710 1673 710 1678 L 710 1683 715 1683 L 720 1683 720 1688 L 720 1693 725 1693 L 730 1693 730 1698 L 730 1703 740 1703 L 750 1703 750 1708 L 750 1713 755 1713 L 760 1713 760 1718.500 L 760 1724 765.500 1724 L 771 1724 771 1729 L 771 1734 776 1734 L 781 1734 781 1739 L 781 1744 791 1744 L 801 1744 801 1749 L 801 1754 806 1754 L 811 1754 811 1759 L 811 1764 821 1764 L 831 1764 831 1769 L 831 1774 841.500 1774 L 852 1774 852 1779 L 852 1784 862 1784 L 872 1784 872 1789.500 L 872 1795 887 1795 L 902 1795 902 1800 L 902 1805 917.500 1805 L 933 1805 933 1810 L 933 1815 958 1815 L 983 1815 983 1820 L 983 1825 1029 1825 L 1075 1825 1075 1820 L 1075 1815 1105.500 1815 L 1136 1815 1136 1810 L 1136 1805 1151 1805 L 1166 1805 1166 1800 L 1166 1795 1176 1795 L 1186 1795 1186 1789.500 L 1186 1784 1201.500 1784 L 1217 1784 1217 1779 L 1217 1774 1227 1774 L 1237 1774 1237 1769 L 1237 1764 1242 1764 L 1247 1764 1247 1759 L 1247 1754 1257 1754 L 1267 1754 1267 1749 L 1267 1744 1272 1744 L 1277 1744 1277 1739 L 1277 1734 1287.500 1734 L 1298 1734 1298 1729 L 1298 1724 1303 1724 L 1308 1724 1308 1718.500 L 1308 1713 1313 1713 L 1318 1713 1318 1708 L 1318 1703 1323 1703 L 1328 1703 1328 1698 L 1328 1693 1333 1693 L 1338 1693 1338 1688 L 1338 1683 1343 1683 L 1348 1683 1348 1678 L 1348 1673 1353.500 1673 L 1359 1673 1359 1668 L 1359 1663 1364 1663 L 1369 1663 1369 1658 L 1369 1653 1374 1653 L 1379 1653 1379 1647.500 L 1379 1642 1384 1642 L 1389 1642 1389 1637 L 1389 1632 1394 1632 L 1399 1632 1399 1627 L 1399 1622 1404 1622 L 1409 1622 1409 1617 L 1409 1612 1414 1612 L 1419 1612 1419 1602 L 1419 1592 1424.500 1592 L 1430 1592 1430 1587 L 1430 1582 1435 1582 L 1440 1582 1440 1571.500 L 1440 1561 1445 1561 L 1450 1561 1450 1556 L 1450 1551 1455 1551 L 1460 1551 1460 1541 L 1460 1531 1465 1531 L 1470 1531 1470 1521 L 1470 1511 1475 1511 L 1480 1511 1480 1506 L 1480 1501 1485 1501 L 1490 1501 1490 1490.500 L 1490 1480 1495.500 1480 L 1501 1480 1501 1470 L 1501 1460 1506 1460 L 1511 1460 1511 1445 L 1511 1430 1516 1430 L 1521 1430 1521 1419.500 L 1521 1409 1526 1409 L 1531 1409 1531 1399 L 1531 1389 1536 1389 L 1541 1389 1541 1374 L 1541 1359 1546 1359 L 1551 1359 1551 1343.500 L 1551 1328 1556 1328 L 1561 1328 1561 1308 L 1561 1288 1566 1288 L 1571 1288 1571 1267.500 L 1571 1247 1576.500 1247 L 1582 1247 1582 1221.500 L 1582 1196 1587 1196 L 1592 1196 1592 1160.500 L 1592 1125 1597 1125 L 1602 1125 1602 988.500 L 1602 852 1597 852 L 1592 852 1592 821.500 L 1592 791 1587 791 L 1582 791 1582 765.500 L 1582 740 1576.500 740 L 1571 740 1571 720 L 1571 700 1566 700 L 1561 700 1561 679.500 L 1561 659 1556 659 L 1551 659 1551 644 L 1551 629 1546 629 L 1541 629 1541 613.500 L 1541 598 1536 598 L 1531 598 1531 588 L 1531 578 1526 578 L 1521 578 1521 562.500 L 1521 547 1516 547 L 1511 547 1511 537 L 1511 527 1506 527 L 1501 527 1501 517 L 1501 507 1495.500 507 L 1490 507 1490 497 L 1490 487 1485 487 L 1480 487 1480 476.500 L 1480 466 1475 466 L 1470 466 1470 461 L 1470 456 1465 456 L 1460 456 1460 446 L 1460 436 1455 436 L 1450 436 1450 431 L 1450 426 1445 426 L 1440 426 1440 416 L 1440 406 1435 406 L 1430 406 1430 400.500 L 1430 395 1424.500 395 L 1419 395 1419 385 L 1419 375 1414 375 L 1409 375 1409 370 L 1409 365 1404 365 L 1399 365 1399 360 L 1399 355 1394 355 L 1389 355 1389 350 L 1389 345 1384 345 L 1379 345 1379 340 L 1379 335 1374 335 L 1369 335 1369 329.500 L 1369 324 1364 324 L 1359 324 1359 319 L 1359 314 1353.500 314 L 1348 314 1348 309 L 1348 304 1343 304 L 1338 304 1338 299 L 1338 294 1333 294 L 1328 294 1328 289 L 1328 284 1323 284 L 1318 284 1318 279 L 1318 274 1313 274 L 1308 274 1308 269 L 1308 264 1298 264 L 1288 264 1288 258.500 L 1288 253 1282.500 253 L 1277 253 1277 248 L 1277 243 1267 243 L 1257 243 1257 238 L 1257 233 1252 233 L 1247 233 1247 228 L 1247 223 1237 223 L 1227 223 1227 218 L 1227 213 1216.500 213 L 1206 213 1206 208 L 1206 203 1191 203 L 1176 203 1176 198 L 1176 193 1161 193 L 1146 193 1146 187.500 L 1146 182 1120.500 182 L 1095 182 1095 177 L 1095 172 1044.500 172 L 994 172 994 177 M 1014 512 L 1014 517 993.500 517 L 973 517 973 522 L 973 527 958 527 L 943 527 943 532 L 943 537 933 537 L 923 537 923 542 L 923 547 912.500 547 L 902 547 902 552.500 L 902 558 892 558 L 882 558 882 563 L 882 568 877 568 L 872 568 872 573 L 872 578 862 578 L 852 578 852 583 L 852 588 847 588 L 842 588 842 593 L 842 598 836.500 598 L 831 598 831 603 L 831 608 826 608 L 821 608 821 613 L 821 618 816 618 L 811 618 811 623.500 L 811 629 806 629 L 801 629 801 634 L 801 639 796 639 L 791 639 791 644 L 791 649 786 649 L 781 649 781 654 L 781 659 776 659 L 771 659 771 664 L 771 669 765.500 669 L 760 669 760 679 L 760 689 755 689 L 750 689 750 694.500 L 750 700 745 700 L 740 700 740 710 L 740 720 735 720 L 730 720 730 730 L 730 740 725 740 L 720 740 720 750 L 720 760 715 760 L 710 760 710 770.500 L 710 781 705 781 L 700 781 700 791 L 700 801 694.500 801 L 689 801 689 816 L 689 831 684 831 L 679 831 679 851.500 L 679 872 674 872 L 669 872 669 907.500 L 669 943 664 943 L 659 943 659 988.500 L 659 1034 664 1034 L 669 1034 669 1064.500 L 669 1095 674 1095 L 679 1095 679 1115.500 L 679 1136 684 1136 L 689 1136 689 1151 L 689 1166 694.500 1166 L 700 1166 700 1181 L 700 1196 705 1196 L 710 1196 710 1206.500 L 710 1217 715 1217 L 720 1217 720 1227 L 720 1237 725 1237 L 730 1237 730 1247 L 730 1257 735 1257 L 740 1257 740 1262 L 740 1267 745 1267 L 750 1267 750 1277.500 L 750 1288 755 1288 L 760 1288 760 1293 L 760 1298 765.500 1298 L 771 1298 771 1303 L 771 1308 776 1308 L 781 1308 781 1313 L 781 1318 786 1318 L 791 1318 791 1323 L 791 1328 796 1328 L 801 1328 801 1333 L 801 1338 806 1338 L 811 1338 811 1343 L 811 1348 816 1348 L 821 1348 821 1353.500 L 821 1359 826 1359 L 831 1359 831 1364 L 831 1369 841.500 1369 L 852 1369 852 1374 L 852 1379 857 1379 L 862 1379 862 1384 L 862 1389 872 1389 L 882 1389 882 1394 L 882 1399 892 1399 L 902 1399 902 1404 L 902 1409 912.500 1409 L 923 1409 923 1414 L 923 1419 938 1419 L 953 1419 953 1424.500 L 953 1430 973.500 1430 L 994 1430 994 1435 L 994 1440 1059.500 1440 L 1125 1440 1125 1435 L 1125 1430 1145.500 1430 L 1166 1430 1166 1424.500 L 1166 1419 1181 1419 L 1196 1419 1196 1414 L 1196 1409 1206.500 1409 L 1217 1409 1217 1404 L 1217 1399 1237 1399 L 1257 1399 1257 1384 L 1257 1369 1262 1369 L 1267 1369 1267 1272.500 L 1267 1176 1262 1176 L 1257 1176 1257 1135.500 L 1257 1095 1252 1095 L 1247 1095 1247 1074.500 L 1247 1054 1242 1054 L 1237 1054 1237 1049 L 1237 1044 1161 1044 L 1085 1044 1085 1049 L 1085 1054 1064.500 1054 L 1044 1054 1044 1029 L 1044 1004 1049 1004 L 1054 1004 1054 953 L 1054 902 1059.500 902 L 1065 902 1065 892 L 1065 882 1075 882 L 1085 882 1085 877 L 1085 872 1140.500 872 L 1196 872 1196 867 L 1196 862 1231.500 862 L 1267 862 1267 857 L 1267 852 1272 852 L 1277 852 1277 720 L 1277 588 1282.500 588 L 1288 588 1288 578 L 1288 568 1282.500 568 L 1277 568 1277 563 L 1277 558 1267 558 L 1257 558 1257 552.500 L 1257 547 1247 547 L 1237 547 1237 542 L 1237 537 1227 537 L 1217 537 1217 532 L 1217 527 1201.500 527 L 1186 527 1186 522 L 1186 517 1171 517 L 1156 517 1156 512 L 1156 507 1085 507 L 1014 507 1014 512 M 0.481 1024 C 0.481 1079.825, 0.602 1102.662, 0.750 1074.750 C 0.897 1046.837, 0.897 1001.162, 0.750 973.250 C 0.602 945.337, 0.481 968.175, 0.481 1024" stroke="none" fill="#14acfc" fill-rule="evenodd"/></svg>